<svg width="48" height="48" viewBox="0 0 48 48" fill="none" xmlns="http://www.w3.org/2000/svg">
<path d="M31.232 9.77584L32.6462 8.36162L32.6257 8.34113L32.6047 8.32125L31.232 9.77584ZM38.2246 16.7683L39.6388 15.3541L39.6388 15.3541L38.2246 16.7683ZM22.0413 17.1354L20.7152 18.6326L23.7095 21.2848L25.0356 19.7877L22.0413 17.1354ZM27.2308 6L28.6034 4.54541L25.8313 7.42879L27.2308 6ZM27.8366 22.4311L26.2677 23.6714L28.7483 26.8093L30.3172 25.5689L27.8366 22.4311ZM40.3852 21.7574L41.7994 23.1717L44.6278 20.3433L43.2136 18.9291L40.3852 21.7574ZM17.7577 33.071C18.5388 32.29 18.5388 31.0237 17.7577 30.2426C16.9767 29.4616 15.7103 29.4616 14.9293 30.2426L17.7577 33.071ZM7.85823 37.3138L6.44403 38.7281L9.27249 41.5565L10.6867 40.1422L7.85823 37.3138ZM29.8178 11.1901L36.8104 18.1826L39.6388 15.3541L32.6462 8.36162L29.8178 11.1901ZM29.7349 8.44972L22.0413 17.1354L25.0356 19.7877L32.7291 11.102L29.7349 8.44972ZM32.6047 8.32125L28.6034 4.54541L25.8581 7.45459L29.8594 11.2304L32.6047 8.32125ZM25.8313 7.42879L36.8251 18.1971L39.6241 15.3396L28.6303 4.57121L25.8313 7.42879ZM36.9843 15.1994L27.8366 22.4311L30.3172 25.5689L39.4649 18.3373L36.9843 15.1994ZM36.8104 18.1825L40.3852 21.7574L43.2136 18.9291L39.6388 15.3541L36.8104 18.1825ZM14.9293 30.2426L7.85823 37.3138L10.6867 40.1422L17.7577 33.071L14.9293 30.2426Z" fill="#D56E0C"/>
<path d="M8.62349 20.6121C7.54137 21.1807 7.32033 22.6353 8.18469 23.4997L24.5002 39.8151C25.3646 40.6795 26.819 40.4585 27.3876 39.3763C29.6034 35.1591 28.818 29.9909 25.4496 26.6223L21.3776 22.5503C18.0089 19.1817 12.8407 18.3963 8.62349 20.6121Z" fill="#D56E0C" stroke="#D56E0C" stroke-width="4" stroke-linecap="round"/>
</svg>
