<svg width="49" height="48" viewBox="0 0 49 48" fill="none" xmlns="http://www.w3.org/2000/svg">
<path d="M20.6964 15L13.9011 15.7389C12.4246 15.8995 11.1587 16.8648 10.6131 18.2462L8.52331 23.5378C7.83691 25.2758 9.69713 26.9222 11.3388 26.0294L16.3578 23.4518M33.16 28L32.421 34.7954C32.2606 36.2718 31.2952 37.5378 29.9138 38.0832L24.6222 40.173C22.8842 40.8596 21.238 38.9992 22.1306 37.3576L24.9118 32.1754M40.4996 8.00003C42.4996 9.99999 41.1188 19.224 34.578 25.7648C31.9808 28.362 29.1608 30.346 26.4996 31.5894C21.8818 33.7472 23.3554 30.2286 20.8132 27.6864C18.2709 25.144 14.7524 26.618 16.9102 22C18.1536 19.3389 20.1376 16.5189 22.7348 13.9216C29.2756 7.38081 38.4996 6.00005 40.4996 8.00003ZM15.5508 38.1784C14.2219 39.5074 7.85059 41.066 7.85059 41.066C7.85059 41.066 9.40921 34.6946 10.7382 33.3658C12.0672 32.0368 14.2219 32.0368 15.5508 33.3658C16.8798 34.6946 16.8798 36.8494 15.5508 38.1784ZM34.4998 16C34.4998 17.1046 33.6044 18 32.4998 18C31.3954 18 30.4998 17.1046 30.4998 16C30.4998 14.8954 31.3954 14 32.4998 14C33.6044 14 34.4998 14.8954 34.4998 16Z" stroke="#1967D2" stroke-width="4" stroke-linecap="round"/>
</svg>
