<svg width="100" height="100" viewBox="0 0 100 100" fill="none" xmlns="http://www.w3.org/2000/svg">
<g clip-path="url(#clip0_110_39278)">
<path d="M50.001 74.9988C63.8088 74.9988 75.002 63.8052 75.002 49.9973C75.002 36.1895 63.8088 24.9958 50.001 24.9958C36.1931 24.9958 25 36.1895 25 49.9973C25 63.8052 36.1931 74.9988 50.001 74.9988Z" fill="white"/>
<path d="M28.349 62.504L6.70077 25.008C2.31128 32.6085 0 41.2305 0 50.008C0 58.7854 2.31023 67.4074 6.6992 75.0079C11.0882 82.6084 17.401 88.9202 25.0026 93.307C32.6041 97.6939 41.2272 100.003 50.0041 99.9999L71.6523 62.504V62.4982C69.4597 66.3008 66.3043 69.4588 62.5038 71.6546C58.7033 73.8503 54.3916 75.0066 50.0025 75.0073C45.6133 75.0079 41.3013 73.8529 37.5002 71.6583C33.6991 69.4635 30.5429 66.3066 28.349 62.505V62.504Z" fill="#229342"/>
<path d="M71.6507 62.5023L50.003 99.9982C58.7799 99.9998 67.4024 97.6896 75.0035 93.3017C82.6045 88.9137 88.9163 82.6014 93.3042 74.9999C97.6919 67.3984 100.001 58.7758 99.9997 49.9989C99.9981 41.222 97.6858 32.6 93.2953 25H49.9993L49.9941 25.0037C54.3832 25.0016 58.6956 26.1552 62.4975 28.3486C66.2995 30.5423 69.4565 33.6976 71.6518 37.4987C73.8469 41.2996 75.0026 45.6115 75.0025 50.0008C75.0024 54.3901 73.846 58.7014 71.6507 62.5023Z" fill="#FBC116"/>
<path d="M50.0012 69.7955C60.9324 69.7955 69.7938 60.9341 69.7938 50.0024C69.7938 39.0707 60.9324 30.2098 50.0012 30.2098C39.07 30.2098 30.2086 39.0712 30.2086 50.0024C30.2086 60.9336 39.07 69.7955 50.0012 69.7955Z" fill="#1A73E8"/>
<path d="M50.0009 25.0015H93.2969C88.9095 17.4 82.5982 11.0871 74.9972 6.69815C67.3964 2.30948 58.7741 -0.000666181 49.9973 1.44102e-07C41.2204 0.000525077 32.5984 2.31182 24.9984 6.70184C17.3981 11.0916 11.087 17.4058 6.70077 25.008L28.349 62.504L28.3553 62.5064C26.1589 58.7062 25.0018 54.3947 25.0004 50.0054C24.999 45.6161 26.1534 41.3039 28.3475 37.5023C30.5411 33.7007 33.6981 30.5437 37.4991 28.3495C41.3002 26.1553 45.6125 24.9999 50.002 25.001L50.0009 25.0015Z" fill="#E33B2E"/>
</g>
<defs>
<clipPath id="clip0_110_39278">
<rect width="99.9997" height="100" fill="white"/>
</clipPath>
</defs>
</svg>
