<svg width="145" height="40" viewBox="0 0 145 40" fill="none" xmlns="http://www.w3.org/2000/svg">
<path d="M19.4594 29.25C15.9046 29.25 12.7958 27.3398 11.0981 24.4873L2.60679 9.75002L2.60523 9.74767L2.60368 9.75002C0.948066 12.6181 0 15.9479 0 19.5C0 30.2694 8.71239 39 19.4594 39L27.8208 24.4873C26.1232 27.3398 23.0144 29.25 19.4594 29.25Z" fill="url(#paint0_linear_4001_975)"/>
<path d="M36.316 9.75029H19.4602C24.8341 9.75029 29.1899 14.1152 29.1899 19.5003C29.1899 21.2257 28.7423 22.8457 27.9578 24.2521C27.9134 24.3316 27.8675 24.4093 27.8208 24.4873L19.4594 39C30.2065 39 38.9196 30.2698 38.9196 19.5003C38.9196 15.9482 37.9716 12.6184 36.316 9.75029Z" fill="url(#paint1_linear_4001_975)"/>
<path d="M36.3126 9.75002C32.947 3.92262 26.6616 0 19.46 0C12.2584 0 5.97095 3.92028 2.60523 9.74767L6.32725 16.3039L10.9624 24.2517C10.1778 22.8454 9.73022 21.2254 9.73022 19.5C9.73022 14.1149 14.0863 9.75029 19.4602 9.75029L36.3126 9.75002Z" fill="url(#paint2_linear_4001_975)"/>
<path d="M29.1887 19.5003C29.1887 14.1152 24.8329 9.75029 19.4589 9.75029C14.085 9.75029 9.72923 14.1152 9.72923 19.5003C9.72923 21.2257 10.1767 22.8457 10.9614 24.2521L11.0981 24.4873C12.7958 27.3398 15.9046 29.25 19.4594 29.25C23.0144 29.25 26.1232 27.3398 27.8208 24.4873L27.9565 24.2521C28.7411 22.8457 29.1887 21.2257 29.1887 19.5003Z" fill="white"/>
<path d="M27.4373 19.5002C27.4373 15.0847 23.8653 11.5052 19.4589 11.5052C15.0524 11.5052 11.4805 15.0847 11.4805 19.5002C11.4805 20.9152 11.8479 22.2435 12.4908 23.3963L12.6022 23.5898C13.9947 25.9282 16.5439 27.4952 19.4589 27.4952C22.3739 27.4952 24.9231 25.9282 26.3157 23.5898L26.4269 23.3963C27.0699 22.2435 27.4373 20.9152 27.4373 19.5002Z" fill="#1A73E8"/>
<path d="M54.1522 27.5488C53.5442 27.5488 52.9511 27.4115 52.4039 27.1526C51.8568 26.8936 51.3702 26.5279 50.9748 26.0707C50.0929 25.0349 49.6064 23.6941 49.6064 22.3229C49.6064 20.9516 50.0929 19.6264 50.9748 18.575C51.3702 18.1178 51.8568 17.7521 52.4039 17.4931C52.9511 17.2342 53.5442 17.0968 54.1522 17.0968C55.034 17.0508 55.9004 17.2949 56.6305 17.7824C57.3606 18.27 57.9079 18.986 58.1966 19.8238L60.6898 18.7879C60.2033 17.5999 59.3821 16.5633 58.3484 15.802C57.1629 14.9791 55.7486 14.5525 54.3195 14.6141C53.3162 14.5837 52.3276 14.7662 51.4006 15.1476C50.4735 15.5283 49.6368 16.107 48.9525 16.823C48.2536 17.5539 47.7212 18.4228 47.3561 19.3674C46.9911 20.312 46.8237 21.3331 46.8541 22.3385C46.8237 23.3595 46.9911 24.3649 47.3561 25.3095C47.7056 26.254 48.2528 27.1222 48.9525 27.8538C49.6515 28.5847 50.4727 29.1486 51.4006 29.5292C52.3276 29.9099 53.3162 30.0932 54.3195 30.0628C55.7634 30.1088 57.1925 29.6821 58.3935 28.8288C59.4576 28.0823 60.2788 27.0465 60.7801 25.8578L58.3632 24.8219C57.5879 26.6346 56.1899 27.5488 54.1522 27.5488Z" fill="#5F6368"/>
<path d="M70.3456 14.5989C69.3881 14.5989 68.4463 14.8579 67.6259 15.3305C66.8662 15.7268 66.2132 16.3359 65.7725 17.0832H65.6511L65.7725 15.0715V8.42441H63.0483V29.5624H65.7725V21.5495C65.757 20.4067 66.1369 19.3101 66.8359 18.4263C67.155 17.9996 67.5644 17.6495 68.0509 17.4209C68.5366 17.1776 69.0682 17.0707 69.5999 17.0855C71.9841 17.0855 73.1679 18.4263 73.1679 21.1072V29.5624H75.8923V20.6938C75.8923 18.835 75.4058 17.357 74.4639 16.2595C73.5058 15.1473 72.1389 14.5989 70.3456 14.5989Z" fill="#5F6368"/>
<path d="M86.1013 14.7307C85.2185 14.761 84.3662 15.0349 83.6205 15.5223C82.8289 15.949 82.2358 16.6338 81.9159 17.4716H81.8077V15.1316H79.1612V29.5616H81.8855L81.9159 21.6282C81.8855 21.065 81.9766 20.5167 82.1743 19.9839C82.372 19.4512 82.6763 18.9793 83.0569 18.5683C83.3917 18.2024 83.7879 17.9139 84.244 17.7157C84.6853 17.5176 85.1874 17.4115 85.6747 17.4115C86.1619 17.3959 86.6484 17.4724 87.1053 17.6245L88.1405 15.0817C87.5015 14.8375 86.8018 14.7158 86.1013 14.7307Z" fill="#5F6368"/>
<path d="M102.389 19.3678C102.04 18.4232 101.493 17.5551 100.793 16.8234C99.3793 15.4069 97.4486 14.6145 95.442 14.6145C93.4353 14.6145 91.5191 15.4069 90.0903 16.8234C89.3913 17.5698 88.8433 18.4232 88.4939 19.3678C88.1288 20.3123 87.9614 21.3333 87.9918 22.3387C87.9614 23.3598 88.1288 24.3652 88.4939 25.3098C88.8433 26.2544 89.3905 27.1225 90.0903 27.8542C91.5037 29.2706 93.4353 30.0631 95.442 30.0631C97.4486 30.0631 99.364 29.2706 100.793 27.8542C101.477 27.1233 102.024 26.2544 102.389 25.3098C102.754 24.3652 102.922 23.3442 102.892 22.3387C102.922 21.3178 102.754 20.3123 102.389 19.3678ZM99.8656 24.3793C99.6234 25.0344 99.2582 25.6436 98.7719 26.1467C98.3462 26.6038 97.8292 26.9696 97.2516 27.213C96.6885 27.4719 96.0657 27.5937 95.442 27.5937C94.8192 27.5937 94.2109 27.4564 93.6333 27.213C93.0557 26.954 92.5387 26.6038 92.113 26.1467C91.6267 25.6288 91.2615 25.0344 91.0192 24.3793C90.7761 23.724 90.6694 23.0236 90.7002 22.3224C90.6694 21.622 90.7761 20.9208 91.0192 20.2655C91.2615 19.6104 91.642 19.0011 92.113 18.4981C92.5387 18.041 93.0557 17.6752 93.6333 17.4318C94.1964 17.1728 94.8192 17.0512 95.442 17.0512C96.0657 17.0512 96.674 17.1884 97.2516 17.4318C97.8292 17.6908 98.3462 18.041 98.7719 18.4981C99.2582 19.016 99.6234 19.6104 99.8656 20.2655C100.11 20.9208 100.215 21.6212 100.185 22.3224C100.216 23.0236 100.11 23.7248 99.8656 24.3793Z" fill="#5F6368"/>
<path d="M122.177 14.5798C121.175 14.5494 120.172 14.7936 119.277 15.2819C118.395 15.7701 117.652 16.5026 117.135 17.3722C116.315 15.526 114.796 14.5955 112.548 14.5955C111.652 14.611 110.786 14.87 110.012 15.3279C109.221 15.7249 108.568 16.3348 108.097 17.0821H107.96V15.0541H105.392V29.562H108.116V21.5491C108.1 20.422 108.466 19.3246 109.167 18.4416C109.471 18.0149 109.867 17.6795 110.325 17.4361C110.781 17.2076 111.299 17.086 111.817 17.086C112.258 17.04 112.7 17.1164 113.126 17.2685C113.552 17.4361 113.918 17.6795 114.238 17.9994C114.771 18.6085 115.045 19.6443 115.045 21.1069V29.562H117.691V21.5491C117.675 20.422 118.056 19.3246 118.742 18.4416C119.046 18.0149 119.442 17.6795 119.9 17.4361C120.356 17.2076 120.874 17.086 121.391 17.086C121.848 17.04 122.289 17.1164 122.716 17.2685C123.127 17.4361 123.508 17.6795 123.828 17.9994C124.361 18.6085 124.62 19.6443 124.62 21.1069V29.562H127.344V20.6825C127.359 18.8059 126.918 17.3262 126.052 16.2279C125.185 15.129 123.894 14.5798 122.177 14.5798Z" fill="#5F6368"/>
<path d="M139.712 15.1147C138.815 14.7489 137.857 14.5811 136.9 14.6273C135.943 14.6116 134.969 14.7949 134.088 15.1912C133.206 15.5874 132.416 16.1817 131.792 16.9126C130.47 18.4211 129.756 20.3556 129.801 22.3515C129.724 24.3928 130.469 26.3888 131.853 27.8817C132.537 28.6126 133.358 29.1765 134.285 29.5572C135.198 29.9378 136.201 30.1055 137.189 30.075C138.618 30.1212 140.001 29.7249 141.172 28.9324C142.206 28.232 143.011 27.2413 143.497 26.0987L141.08 25.0932C140.382 26.7538 139.074 27.5767 137.112 27.5767C136.535 27.5923 135.957 27.4699 135.41 27.2569C134.878 27.0441 134.376 26.7234 133.966 26.3124C133.039 25.3982 132.522 24.1495 132.507 22.8539H143.969L144 22.3508C144 20.0046 143.361 18.131 142.069 16.7293C141.399 16.0288 140.609 15.4805 139.712 15.1147ZM132.704 20.5919C132.932 19.6012 133.464 18.7183 134.223 18.0475C134.954 17.4079 135.881 17.0725 136.838 17.0882C138.221 17.0882 139.255 17.4688 139.955 18.2152C140.609 18.84 141.005 19.6933 141.096 20.5919H132.704Z" fill="#5F6368"/>
<defs>
<linearGradient id="paint0_linear_4001_975" x1="111.817" y1="37.7476" x2="104.194" y2="-13.4105" gradientUnits="userSpaceOnUse">
<stop stop-color="#1E8E3E"/>
<stop offset="1" stop-color="#34A853"/>
</linearGradient>
<linearGradient id="paint1_linear_4001_975" x1="-21.4664" y1="39.4379" x2="-16.0747" y2="-12.3065" gradientUnits="userSpaceOnUse">
<stop stop-color="#FCC934"/>
<stop offset="1" stop-color="#FBBC04"/>
</linearGradient>
<linearGradient id="paint2_linear_4001_975" x1="-0.0494664" y1="19.7516" x2="144.063" y2="19.7516" gradientUnits="userSpaceOnUse">
<stop stop-color="#D93025"/>
<stop offset="1" stop-color="#EA4335"/>
</linearGradient>
</defs>
</svg>
