<svg width="576" height="188" viewBox="0 0 576 188" fill="none" xmlns="http://www.w3.org/2000/svg">
<path fill-rule="evenodd" clip-rule="evenodd" d="M392.323 45.6252L411.772 37.4635C410.691 34.7112 407.497 32.8131 403.692 32.8131C398.829 32.7894 392.088 37.1313 392.323 45.6252ZM415.154 53.526L422.577 58.5085C420.181 62.0911 414.426 68.2599 404.443 68.2599C392.088 68.2599 383.162 58.6034 383.162 46.2896C383.162 33.2165 392.158 24.3192 403.386 24.3192C414.685 24.3192 420.205 33.3826 422.013 38.2939L423 40.7851L393.92 52.9329C396.151 57.3459 399.604 59.5999 404.467 59.5999C409.306 59.5999 412.688 57.1798 415.154 53.526ZM368.011 66.9313H377.571V2.34886H368.011V66.9313ZM352.414 46.3607C352.414 38.626 347.293 32.9555 340.786 32.9555C334.209 32.9555 328.666 38.626 328.666 46.3607C328.666 54.0243 334.186 59.5999 340.786 59.5999C347.316 59.5999 352.414 54.0243 352.414 46.3607ZM360.823 25.6479V65.1043C360.823 81.333 351.357 88 340.152 88C329.605 88 323.263 80.8347 320.867 75.0218L329.182 71.5341C330.662 75.1168 334.303 79.3637 340.152 79.3637C347.316 79.3637 351.779 74.8795 351.779 66.4567V63.3012H351.427C349.29 65.9585 345.155 68.3074 339.964 68.3074C329.088 68.3074 319.105 58.7458 319.105 46.4082C319.105 33.9995 329.065 24.3429 339.964 24.3429C345.155 24.3429 349.29 26.6681 351.427 29.2542H351.756V25.6716C351.756 25.6479 360.823 25.6479 360.823 25.6479ZM256.505 46.2896C256.505 38.3888 250.915 32.9792 244.455 32.9792C237.972 32.9792 232.405 38.3888 232.405 46.2896C232.405 54.1192 237.996 59.5999 244.455 59.5999C250.915 59.5999 256.505 54.0955 256.505 46.2896ZM265.901 46.2896C265.901 58.9356 256.271 68.2599 244.455 68.2599C232.64 68.2599 223.009 58.9356 223.009 46.2896C223.009 33.5487 232.64 24.3192 244.455 24.3192C256.271 24.3192 265.901 33.5487 265.901 46.2896ZM304.565 46.2896C304.565 38.3888 298.975 32.9792 292.515 32.9792C286.032 32.9792 280.465 38.3888 280.465 46.2896C280.465 54.1192 286.055 59.5999 292.515 59.5999C298.975 59.5999 304.565 54.0955 304.565 46.2896ZM313.961 46.2896C313.961 58.9356 304.33 68.2599 292.515 68.2599C280.7 68.2599 271.069 58.9356 271.069 46.2896C271.069 33.5487 280.7 24.3192 292.515 24.3192C304.33 24.3192 313.961 33.5487 313.961 46.2896ZM186.271 68.2599C167.668 68.2599 152 52.9329 152 34.1418C152 15.327 167.668 0 186.271 0C196.583 0 203.912 4.08087 209.432 9.41924L202.926 15.9914C198.979 12.2426 193.624 9.32433 186.271 9.32433C172.671 9.32433 162.03 20.4044 162.03 34.1181C162.03 47.8555 172.671 58.9118 186.271 58.9118C195.08 58.9118 200.107 55.3292 203.325 52.0787C205.956 49.4214 207.694 45.5778 208.352 40.3343H186.271V31.01H217.325C217.654 32.6708 217.818 34.6638 217.818 36.8229C217.818 43.8221 215.915 52.4821 209.832 58.6271C203.912 64.9145 196.325 68.2599 186.271 68.2599Z" fill="white"/>
<g filter="url(#filter0_dd_4029_9155)">
<rect x="6" y="132" width="564" height="48" rx="24" fill="white"/>
<rect x="6.5" y="132.5" width="563" height="47" rx="23.5" stroke="#EFF1F2"/>
<g clip-path="url(#clip0_4029_9155)">
<path d="M28.3281 156.703C29.2031 157.578 30.2656 158.016 31.5156 158.016C32.7656 158.016 33.8281 157.578 34.7031 156.703C35.5781 155.828 36.0156 154.766 36.0156 153.516C36.0156 152.266 35.5781 151.203 34.7031 150.328C33.8281 149.453 32.7656 149.016 31.5156 149.016C30.2656 149.016 29.2031 149.453 28.3281 150.328C27.4531 151.203 27.0156 152.266 27.0156 153.516C27.0156 154.766 27.4531 155.828 28.3281 156.703ZM37.5156 158.016L42.4844 162.984L40.9844 164.484L36.0156 159.516V158.719L35.7344 158.438C34.5469 159.469 33.1406 159.984 31.5156 159.984C29.7031 159.984 28.1562 159.359 26.875 158.109C25.625 156.859 25 155.328 25 153.516C25 151.703 25.625 150.172 26.875 148.922C28.1562 147.641 29.7031 147 31.5156 147C33.3281 147 34.8594 147.641 36.1094 148.922C37.3594 150.172 37.9844 151.703 37.9844 153.516C37.9844 155.141 37.4688 156.547 36.4375 157.734L36.7188 158.016H37.5156Z" fill="#5F6368"/>
<path d="M55.584 162V150.56H59.968C60.6613 150.56 61.2693 150.688 61.792 150.944C62.3147 151.189 62.72 151.536 63.008 151.984C63.296 152.432 63.44 152.96 63.44 153.568C63.44 154.091 63.312 154.56 63.056 154.976C62.8 155.381 62.448 155.707 62 155.952C62.5973 156.187 63.0613 156.549 63.392 157.04C63.7333 157.52 63.904 158.091 63.904 158.752C63.904 159.403 63.7493 159.973 63.44 160.464C63.1307 160.944 62.6987 161.323 62.144 161.6C61.5893 161.867 60.9387 162 60.192 162H55.584ZM59.904 151.968H57.232V155.424H59.904C60.4907 155.424 60.9493 155.269 61.28 154.96C61.6107 154.651 61.776 154.224 61.776 153.68C61.776 153.157 61.6107 152.741 61.28 152.432C60.9493 152.123 60.4907 151.968 59.904 151.968ZM57.232 160.592H60.208C60.8373 160.592 61.3333 160.421 61.696 160.08C62.0587 159.739 62.24 159.275 62.24 158.688C62.24 158.112 62.0587 157.659 61.696 157.328C61.3333 156.987 60.8373 156.816 60.208 156.816H57.232V160.592ZM66.1234 162V154.048H69.9474C70.7474 154.048 71.398 154.235 71.8994 154.608C72.4007 154.981 72.6514 155.499 72.6514 156.16C72.6514 156.939 72.294 157.493 71.5794 157.824C72.0274 157.995 72.374 158.245 72.6194 158.576C72.8647 158.896 72.9874 159.269 72.9874 159.696C72.9874 160.144 72.8647 160.544 72.6194 160.896C72.374 161.237 72.038 161.509 71.6114 161.712C71.1847 161.904 70.694 162 70.1394 162H66.1234ZM69.8194 155.296H67.6434V157.296H69.8194C70.1927 157.296 70.486 157.211 70.6994 157.04C70.9234 156.869 71.0354 156.619 71.0354 156.288C71.0354 155.627 70.63 155.296 69.8194 155.296ZM70.0114 158.464H67.6434V160.752H70.0114C70.4487 160.752 70.7847 160.656 71.0194 160.464C71.2647 160.261 71.3874 159.979 71.3874 159.616C71.3874 159.253 71.2647 158.971 71.0194 158.768C70.7847 158.565 70.4487 158.464 70.0114 158.464ZM81.0479 159.664L81.9919 160.672C81.5759 161.195 81.0799 161.589 80.5039 161.856C79.9385 162.123 79.3199 162.256 78.6479 162.256C77.8159 162.256 77.0852 162.075 76.4559 161.712C75.8372 161.349 75.3519 160.848 74.9999 160.208C74.6479 159.568 74.4719 158.843 74.4719 158.032C74.4719 157.221 74.6425 156.496 74.9839 155.856C75.3252 155.216 75.7945 154.715 76.3919 154.352C76.9892 153.979 77.6612 153.792 78.4079 153.792C79.1332 153.792 79.7732 153.973 80.3279 154.336C80.8825 154.688 81.3145 155.179 81.6239 155.808C81.9439 156.437 82.1039 157.157 82.1039 157.968V158.544H76.1519C76.2479 159.269 76.5199 159.851 76.9679 160.288C77.4159 160.715 78.0025 160.928 78.7279 160.928C79.6879 160.928 80.4612 160.507 81.0479 159.664ZM78.3919 155.12C77.7945 155.12 77.2932 155.328 76.8879 155.744C76.4932 156.149 76.2532 156.699 76.1679 157.392H80.4879C80.4239 156.688 80.2052 156.133 79.8319 155.728C79.4692 155.323 78.9892 155.12 78.3919 155.12ZM83.1146 164.112V160.672H83.7706C84.048 160.672 84.2453 160.565 84.3626 160.352C84.48 160.139 84.5706 159.723 84.6346 159.104L85.1626 154.048H90.6666V160.672H91.7546V164.112H90.2506V162H84.6346V164.112H83.1146ZM86.1546 159.216C86.0906 159.856 85.9573 160.341 85.7546 160.672H89.0826V155.36H86.6026L86.1546 159.216ZM93.639 162V154.048H95.191V159.648L99.287 154.048H100.695V162H99.127V156.432L95.047 162H93.639ZM105.089 162V155.376H102.449V154.048H109.313V155.376H106.673V162H105.089ZM116.735 159.664L117.679 160.672C117.263 161.195 116.767 161.589 116.191 161.856C115.626 162.123 115.007 162.256 114.335 162.256C113.503 162.256 112.773 162.075 112.143 161.712C111.525 161.349 111.039 160.848 110.687 160.208C110.335 159.568 110.159 158.843 110.159 158.032C110.159 157.221 110.33 156.496 110.671 155.856C111.013 155.216 111.482 154.715 112.079 154.352C112.677 153.979 113.349 153.792 114.095 153.792C114.821 153.792 115.461 153.973 116.015 154.336C116.57 154.688 117.002 155.179 117.311 155.808C117.631 156.437 117.791 157.157 117.791 157.968V158.544H111.839C111.935 159.269 112.207 159.851 112.655 160.288C113.103 160.715 113.69 160.928 114.415 160.928C115.375 160.928 116.149 160.507 116.735 159.664ZM114.079 155.12C113.482 155.12 112.981 155.328 112.575 155.744C112.181 156.149 111.941 156.699 111.855 157.392H116.175C116.111 156.688 115.893 156.133 115.519 155.728C115.157 155.323 114.677 155.12 114.079 155.12ZM123.467 162V154.048H130.347V162H128.747V155.376H125.067V162H123.467ZM136.473 162.256C135.684 162.256 134.98 162.075 134.361 161.712C133.753 161.349 133.273 160.848 132.921 160.208C132.58 159.568 132.409 158.843 132.409 158.032C132.409 157.211 132.58 156.48 132.921 155.84C133.273 155.2 133.753 154.699 134.361 154.336C134.969 153.973 135.668 153.792 136.457 153.792C137.257 153.792 137.961 153.973 138.569 154.336C139.188 154.699 139.668 155.2 140.009 155.84C140.361 156.48 140.537 157.211 140.537 158.032C140.537 158.843 140.361 159.568 140.009 160.208C139.668 160.848 139.193 161.349 138.585 161.712C137.977 162.075 137.273 162.256 136.473 162.256ZM136.473 160.88C137.188 160.88 137.764 160.619 138.201 160.096C138.639 159.563 138.857 158.875 138.857 158.032C138.857 157.179 138.639 156.491 138.201 155.968C137.764 155.435 137.183 155.168 136.457 155.168C135.753 155.168 135.183 155.435 134.745 155.968C134.308 156.491 134.089 157.179 134.089 158.032C134.089 158.875 134.308 159.563 134.745 160.096C135.183 160.619 135.759 160.88 136.473 160.88ZM142.608 162V154.048H144.16V159.648L148.256 154.048H149.664V162H148.096V156.432L144.016 162H142.608ZM157.978 159.68L159.018 160.704C158.634 161.195 158.165 161.579 157.61 161.856C157.055 162.123 156.447 162.256 155.786 162.256C154.997 162.256 154.293 162.075 153.674 161.712C153.066 161.349 152.586 160.853 152.234 160.224C151.893 159.584 151.722 158.853 151.722 158.032C151.722 157.2 151.893 156.469 152.234 155.84C152.586 155.2 153.071 154.699 153.69 154.336C154.309 153.973 155.013 153.792 155.802 153.792C157.167 153.792 158.245 154.309 159.034 155.344L157.962 156.368C157.482 155.568 156.773 155.168 155.834 155.168C155.119 155.168 154.533 155.429 154.074 155.952C153.626 156.464 153.402 157.157 153.402 158.032C153.402 158.885 153.631 159.579 154.09 160.112C154.549 160.635 155.141 160.896 155.866 160.896C156.314 160.896 156.714 160.795 157.066 160.592C157.418 160.379 157.722 160.075 157.978 159.68ZM160.78 162V154.048H162.38V157.472L165.58 154.048H167.564L163.916 157.92L167.916 162H165.82L162.38 158.416V162H160.78ZM172.411 162.256C171.622 162.256 170.918 162.075 170.299 161.712C169.691 161.349 169.211 160.848 168.859 160.208C168.518 159.568 168.347 158.843 168.347 158.032C168.347 157.211 168.518 156.48 168.859 155.84C169.211 155.2 169.691 154.699 170.299 154.336C170.907 153.973 171.606 153.792 172.395 153.792C173.195 153.792 173.899 153.973 174.507 154.336C175.126 154.699 175.606 155.2 175.947 155.84C176.299 156.48 176.475 157.211 176.475 158.032C176.475 158.843 176.299 159.568 175.947 160.208C175.606 160.848 175.131 161.349 174.523 161.712C173.915 162.075 173.211 162.256 172.411 162.256ZM172.411 160.88C173.126 160.88 173.702 160.619 174.139 160.096C174.576 159.563 174.795 158.875 174.795 158.032C174.795 157.179 174.576 156.491 174.139 155.968C173.702 155.435 173.12 155.168 172.395 155.168C171.691 155.168 171.12 155.435 170.683 155.968C170.246 156.491 170.027 157.179 170.027 158.032C170.027 158.875 170.246 159.563 170.683 160.096C171.12 160.619 171.696 160.88 172.411 160.88ZM178.545 162V154.048H182.369C183.169 154.048 183.82 154.235 184.321 154.608C184.823 154.981 185.073 155.499 185.073 156.16C185.073 156.939 184.716 157.493 184.001 157.824C184.449 157.995 184.796 158.245 185.041 158.576C185.287 158.896 185.409 159.269 185.409 159.696C185.409 160.144 185.287 160.544 185.041 160.896C184.796 161.237 184.46 161.509 184.033 161.712C183.607 161.904 183.116 162 182.561 162H178.545ZM182.241 155.296H180.065V157.296H182.241C182.615 157.296 182.908 157.211 183.121 157.04C183.345 156.869 183.457 156.619 183.457 156.288C183.457 155.627 183.052 155.296 182.241 155.296ZM182.433 158.464H180.065V160.752H182.433C182.871 160.752 183.207 160.656 183.441 160.464C183.687 160.261 183.809 159.979 183.809 159.616C183.809 159.253 183.687 158.971 183.441 158.768C183.207 158.565 182.871 158.464 182.433 158.464ZM187.389 162V154.048H188.989V156.8H190.829C191.704 156.8 192.402 157.04 192.925 157.52C193.458 157.989 193.725 158.608 193.725 159.376C193.725 159.877 193.602 160.331 193.357 160.736C193.112 161.131 192.77 161.44 192.333 161.664C191.896 161.888 191.394 162 190.829 162H187.389ZM194.685 162V154.048H196.285V162H194.685ZM190.765 158.112H188.989V160.704H190.765C191.192 160.704 191.522 160.592 191.757 160.368C191.992 160.133 192.109 159.808 192.109 159.392C192.109 158.987 191.992 158.672 191.757 158.448C191.522 158.224 191.192 158.112 190.765 158.112ZM198.827 162V154.048H200.379V159.648L204.475 154.048H205.883V162H204.315V156.432L200.235 162H198.827ZM202.475 152.64C201.728 152.64 201.109 152.453 200.619 152.08C200.128 151.696 199.84 151.147 199.755 150.432H201.099C201.152 150.869 201.301 151.189 201.547 151.392C201.803 151.584 202.112 151.68 202.475 151.68C202.848 151.68 203.152 151.584 203.387 151.392C203.632 151.189 203.781 150.869 203.835 150.432H205.195C205.109 151.147 204.816 151.696 204.315 152.08C203.824 152.453 203.211 152.64 202.475 152.64ZM214.766 162.256C213.252 162.256 212.068 161.749 211.214 160.736L212.174 159.728C212.772 160.528 213.588 160.928 214.622 160.928C215.198 160.928 215.652 160.816 215.982 160.592C216.313 160.357 216.478 160.037 216.478 159.632C216.478 158.896 215.934 158.528 214.846 158.528H213.262V157.312H214.862C215.321 157.312 215.673 157.221 215.918 157.04C216.164 156.859 216.286 156.603 216.286 156.272C216.286 155.909 216.132 155.627 215.822 155.424C215.524 155.221 215.124 155.12 214.622 155.12C213.673 155.12 212.91 155.504 212.334 156.272L211.39 155.28C212.254 154.288 213.353 153.792 214.686 153.792C215.316 153.792 215.87 153.888 216.35 154.08C216.83 154.272 217.204 154.544 217.47 154.896C217.748 155.237 217.886 155.632 217.886 156.08C217.886 156.88 217.497 157.451 216.718 157.792C217.636 158.187 218.094 158.827 218.094 159.712C218.094 160.203 217.95 160.64 217.662 161.024C217.374 161.408 216.98 161.712 216.478 161.936C215.977 162.149 215.406 162.256 214.766 162.256ZM222.552 162.256C221.986 162.256 221.485 162.149 221.048 161.936C220.61 161.712 220.269 161.408 220.024 161.024C219.789 160.64 219.672 160.203 219.672 159.712C219.672 158.891 219.986 158.251 220.616 157.792C221.245 157.323 222.104 157.088 223.192 157.088H225.192C225.192 156.48 225.005 155.995 224.632 155.632C224.269 155.269 223.757 155.088 223.096 155.088C222.264 155.088 221.517 155.44 220.856 156.144L219.928 155.152C220.866 154.245 221.965 153.792 223.224 153.792C223.928 153.792 224.536 153.931 225.048 154.208C225.57 154.475 225.976 154.853 226.264 155.344C226.552 155.824 226.696 156.389 226.696 157.04V162H225.24V160.96C224.952 161.365 224.573 161.685 224.104 161.92C223.645 162.144 223.128 162.256 222.552 162.256ZM222.872 161.008C223.416 161.008 223.89 160.869 224.296 160.592C224.712 160.304 225.01 159.925 225.192 159.456V158.224H223.336C222.696 158.224 222.194 158.352 221.832 158.608C221.48 158.853 221.304 159.2 221.304 159.648C221.304 160.053 221.442 160.384 221.72 160.64C222.008 160.885 222.392 161.008 222.872 161.008ZM229.092 162V154.048H235.972V162H234.372V155.376H230.692V162H229.092ZM240.098 165.104H238.498V154.048H240.082V155.408C240.338 154.917 240.706 154.528 241.186 154.24C241.677 153.941 242.226 153.792 242.834 153.792C243.549 153.792 244.184 153.973 244.738 154.336C245.304 154.699 245.746 155.2 246.066 155.84C246.397 156.48 246.562 157.211 246.562 158.032C246.562 158.853 246.392 159.584 246.05 160.224C245.72 160.864 245.266 161.365 244.69 161.728C244.125 162.08 243.485 162.256 242.77 162.256C242.173 162.256 241.645 162.133 241.186 161.888C240.728 161.643 240.365 161.312 240.098 160.896V165.104ZM240.098 158.176V159.2C240.269 159.701 240.562 160.112 240.978 160.432C241.405 160.741 241.89 160.896 242.434 160.896C242.925 160.896 243.352 160.773 243.714 160.528C244.077 160.283 244.36 159.947 244.562 159.52C244.776 159.083 244.882 158.587 244.882 158.032C244.882 157.189 244.669 156.501 244.242 155.968C243.816 155.424 243.245 155.152 242.53 155.152C242.061 155.152 241.64 155.28 241.266 155.536C240.904 155.792 240.616 156.149 240.402 156.608C240.2 157.056 240.098 157.579 240.098 158.176ZM252.223 162.256C251.434 162.256 250.73 162.075 250.111 161.712C249.503 161.349 249.023 160.848 248.671 160.208C248.33 159.568 248.159 158.843 248.159 158.032C248.159 157.211 248.33 156.48 248.671 155.84C249.023 155.2 249.503 154.699 250.111 154.336C250.719 153.973 251.418 153.792 252.207 153.792C253.007 153.792 253.711 153.973 254.319 154.336C254.938 154.699 255.418 155.2 255.759 155.84C256.111 156.48 256.287 157.211 256.287 158.032C256.287 158.843 256.111 159.568 255.759 160.208C255.418 160.848 254.943 161.349 254.335 161.712C253.727 162.075 253.023 162.256 252.223 162.256ZM252.223 160.88C252.938 160.88 253.514 160.619 253.951 160.096C254.389 159.563 254.607 158.875 254.607 158.032C254.607 157.179 254.389 156.491 253.951 155.968C253.514 155.435 252.933 155.168 252.207 155.168C251.503 155.168 250.933 155.435 250.495 155.968C250.058 156.491 249.839 157.179 249.839 158.032C249.839 158.875 250.058 159.563 250.495 160.096C250.933 160.619 251.509 160.88 252.223 160.88ZM264.15 159.68L265.19 160.704C264.806 161.195 264.336 161.579 263.782 161.856C263.227 162.123 262.619 162.256 261.958 162.256C261.168 162.256 260.464 162.075 259.846 161.712C259.238 161.349 258.758 160.853 258.406 160.224C258.064 159.584 257.894 158.853 257.894 158.032C257.894 157.2 258.064 156.469 258.406 155.84C258.758 155.2 259.243 154.699 259.862 154.336C260.48 153.973 261.184 153.792 261.974 153.792C263.339 153.792 264.416 154.309 265.206 155.344L264.134 156.368C263.654 155.568 262.944 155.168 262.006 155.168C261.291 155.168 260.704 155.429 260.246 155.952C259.798 156.464 259.574 157.157 259.574 158.032C259.574 158.885 259.803 159.579 260.262 160.112C260.72 160.635 261.312 160.896 262.038 160.896C262.486 160.896 262.886 160.795 263.238 160.592C263.59 160.379 263.894 160.075 264.15 159.68ZM270.545 162V154.048H272.097V159.648L276.193 154.048H277.601V162H276.033V156.432L271.953 162H270.545ZM279.339 162V160.656H279.963C280.209 160.656 280.39 160.587 280.507 160.448C280.635 160.299 280.715 160.043 280.747 159.68L281.211 154.048H286.827V162H285.227V155.376H282.667L282.235 159.968C282.171 160.725 281.979 161.253 281.659 161.552C281.339 161.851 280.849 162 280.187 162H279.339ZM289.358 162V154.048H290.91V159.648L295.006 154.048H296.414V162H294.846V156.432L290.766 162H289.358ZM311.554 150.56V157.488C311.554 158.992 311.159 160.165 310.37 161.008C309.58 161.84 308.492 162.256 307.106 162.256C305.719 162.256 304.626 161.84 303.826 161.008C303.036 160.165 302.642 158.992 302.642 157.488V150.56H304.29V157.488C304.29 158.523 304.535 159.328 305.026 159.904C305.527 160.48 306.22 160.768 307.106 160.768C307.991 160.768 308.679 160.48 309.17 159.904C309.671 159.328 309.922 158.523 309.922 157.488V150.56H311.554ZM316.154 162H314.506V150.56H318.778C319.514 150.56 320.159 150.699 320.714 150.976C321.269 151.253 321.701 151.643 322.01 152.144C322.319 152.645 322.474 153.227 322.474 153.888C322.474 154.72 322.234 155.424 321.754 156C321.274 156.576 320.629 156.949 319.818 157.12L323.562 162H321.514L317.978 157.232H316.154V162ZM318.778 151.984H316.154V155.808H318.778C319.407 155.808 319.903 155.637 320.266 155.296C320.629 154.955 320.81 154.485 320.81 153.888C320.81 153.291 320.629 152.827 320.266 152.496C319.903 152.155 319.407 151.984 318.778 151.984ZM332.733 162H325.693V150.56H327.341V160.56H332.733V162Z" fill="#92969B"/>
</g>
<g clip-path="url(#clip1_4029_9155)">
<path d="M542 158.655C540.577 158.655 539.425 157.452 539.425 155.966V149.689C539.425 148.203 540.577 147 542 147C543.423 147 544.576 148.203 544.576 149.689V155.966C544.576 157.452 543.423 158.655 542 158.655Z" fill="#4285F4"/>
<path d="M542.861 161.711H541.143V165H542.861V161.711Z" fill="#34A853"/>
<path d="M546.302 156C546.298 158.474 544.369 160.487 542 160.487C540.811 160.487 539.732 159.981 538.951 159.162L537.75 160.416C538.838 161.551 540.338 162.256 542 162.256C545.311 162.256 547.996 159.453 548 155.996H546.302V156Z" fill="#EA4335"/>
<path d="M538.951 159.162C538.179 158.351 537.698 157.233 537.698 156H536C536 157.722 536.671 159.284 537.751 160.416L538.951 159.162Z" fill="#FBBC05"/>
</g>
</g>
<defs>
<filter id="filter0_dd_4029_9155" x="0" y="128" width="576" height="60" filterUnits="userSpaceOnUse" color-interpolation-filters="sRGB">
<feFlood flood-opacity="0" result="BackgroundImageFix"/>
<feColorMatrix in="SourceAlpha" type="matrix" values="0 0 0 0 0 0 0 0 0 0 0 0 0 0 0 0 0 0 127 0" result="hardAlpha"/>
<feOffset dy="2"/>
<feGaussianBlur stdDeviation="3"/>
<feComposite in2="hardAlpha" operator="out"/>
<feColorMatrix type="matrix" values="0 0 0 0 0.12549 0 0 0 0 0.129412 0 0 0 0 0.145098 0 0 0 0.2 0"/>
<feBlend mode="normal" in2="BackgroundImageFix" result="effect1_dropShadow_4029_9155"/>
<feColorMatrix in="SourceAlpha" type="matrix" values="0 0 0 0 0 0 0 0 0 0 0 0 0 0 0 0 0 0 127 0" result="hardAlpha"/>
<feOffset dy="2"/>
<feGaussianBlur stdDeviation="1"/>
<feComposite in2="hardAlpha" operator="out"/>
<feColorMatrix type="matrix" values="0 0 0 0 0 0 0 0 0 0 0 0 0 0 0 0 0 0 0.1 0"/>
<feBlend mode="normal" in2="effect1_dropShadow_4029_9155" result="effect2_dropShadow_4029_9155"/>
<feBlend mode="normal" in="SourceGraphic" in2="effect2_dropShadow_4029_9155" result="shape"/>
</filter>
<clipPath id="clip0_4029_9155">
<rect width="312" height="24" fill="white" transform="translate(22 144)"/>
</clipPath>
<clipPath id="clip1_4029_9155">
<rect width="12" height="18" fill="white" transform="translate(536 147)"/>
</clipPath>
</defs>
</svg>
